<?xml version="1.0" encoding="UTF-8" standalone="no"?>
<svg
        width="424mm"
        height="520mm"
        viewBox="0 0 424 520"
        version="1.1"
        id="svg1"
        xml:space="preserve"
        xmlns="http://www.w3.org/2000/svg"
        xmlns:svg="http://www.w3.org/2000/svg"><defs
   id="defs1" />
    <g id="background" transform="matrix(0.5,0,0,0.5,60,110)">
        <circle cx="300" cy="300" r="300" fill="#B0BEC5" />
    </g>
    <g id="dancers" transform="matrix(0.5,0,0,0.5,110,135)">
        <path
                d="m 135.37,132.95628 c -0.26008,1.05621 -0.56329,2.11322 -0.95594,3.18161 -0.40454,1.09802 -1.0451,2.11217 -1.62057,3.13981 -0.88847,-1.99549 -1.97114,-3.87165 -3.59833,-5.40729 -0.28231,-0.2667 -0.5723,-0.52467 -0.85011,-0.79375 2.42094,0.40799 4.82203,0.39026 7.02469,-0.12012 z m 68.82474,117.76392 c -3.72295,11.86206 -7.75679,23.77387 -11.2768,35.64705 -5.65653,-18.40495 -12.6791,-36.39556 -21.76516,-53.39292 -0.89614,-1.68116 10.13566,-25.71194 17.57283,-47.18632 0.61834,-0.28337 1.24672,-0.55562 1.89627,-0.79587 4.03596,-1.49595 23.92839,-16.2597 25.48811,-17.90117 0.97023,2.33045 0.31856,6.1968 0.31856,8.73019 0,4.2873 0.28892,8.57355 0.19182,12.85107 -0.12356,5.45042 -0.79481,10.8249 -0.76941,16.31924 0.006,1.29328 -0.022,1.95792 -0.56991,3.0779 -0.64162,1.30757 -2.28521,2.4122 -1.86214,4.05923 0.22701,0.88742 1.35943,1.2745 1.47188,2.39342 0.12012,1.20042 -0.67151,2.18943 -0.97684,3.30518 -0.13229,0.48392 -0.25242,1.05172 -0.33841,1.64359 -4.05685,9.92532 -6.21559,21.16217 -9.38053,31.24941 z M 146.6865,422.62872 c 0,-9.19427 1.05277,-20.59887 0.19288,-29.74922 -0.41222,-4.38653 -0.66596,-6.74793 -1.48167,-10.92385 0.46408,0.008 0.93054,0 1.3978,-0.0376 6.99373,-0.57336 12.43435,-6.38202 19.17461,-8.32988 2.1254,-0.61516 4.30716,-0.82233 6.51431,-0.86334 -3.65337,13.36358 -7.53057,26.66683 -11.63849,39.89811 -2.09365,6.74132 -4.25318,13.50486 -5.22102,20.49754 -0.10584,0.76517 -0.20611,1.55998 -0.61304,2.21694 -0.75195,1.20835 -2.35929,1.66688 -3.12314,2.86861 -0.57653,0.90832 -0.55907,2.05264 -0.69665,3.11891 -0.35058,2.69002 -1.83542,4.97099 -3.36127,7.20884 -1.50257,-8.45899 -1.14432,-17.40297 -1.14432,-25.90483 z m 217.12369,50.38434 c -1.55337,-2.72203 -4.16613,-4.02828 -6.69396,-5.56181 -3.30067,-2.0021 -4.63682,-4.12432 -6.63998,-7.33901 -3.1541,-5.06465 -4.92337,-11.57764 -8.2251,-16.37109 -2.49925,-3.63141 -4.33149,-4.20688 -4.64132,-8.76644 -0.33285,-4.91252 -0.69109,-9.59115 -1.90818,-14.40207 -1.22925,-4.85722 -2.82125,-7.62661 -5.02814,-11.77607 -3.21469,-6.04679 -4.34472,-13.47841 -5.47899,-20.12818 -2.12011,-12.42536 -3.89043,-22.96239 -11.47418,-33.4809 -4.17037,-5.78459 -4.48469,-6.0833 -3.27422,-13.78374 1.74836,-11.13684 -0.76386,-20.51843 -3.86398,-31.2494 -4.94003,-17.10426 -10.91406,-33.77407 -15.41648,-51.00506 -2.42411,-9.27682 -2.58736,-19.10609 -4.12855,-28.56282 -0.71438,-4.39103 -0.99219,-8.68601 -2.19393,-12.99766 -0.1135,-0.41116 -0.2204,-0.88847 -0.32305,-1.40891 0.13017,-0.58102 0.39793,-1.12897 0.59531,-1.69439 0.35057,-1.00092 0.45746,-2.06586 0.57203,-3.12102 0.80803,-7.54274 2.00104,-15.04368 3.57293,-22.46524 1.66582,-7.86792 3.75708,-15.63476 6.00816,-23.35716 3.0472,2.39343 6.09415,4.78579 9.14135,7.17789 5.35014,4.20131 9.58559,9.4488 13.53556,14.97859 0.36486,0.51038 0.73316,1.03954 0.88635,1.64809 0.21273,0.82894 0.006,1.72085 0.20823,2.55217 0.20187,0.83343 0.83449,1.54887 1.63592,1.85208 -1.152,1.43854 -0.957,3.48694 -0.86096,5.32818 0.51382,9.89859 -0.006,20.35757 -2.10132,30.04132 -0.41328,1.91373 -1.29646,5.00936 -0.91175,6.35767 0.3683,1.28985 1.5875,0.74639 1.73408,2.24235 0.11139,1.12897 0.12118,2.55878 0,3.69305 -0.24924,2.32489 -1.20174,4.99295 -3.24988,6.29814 -2.34368,1.4949 -4.89029,2.64478 -6.38969,5.08873 -1.30095,2.12328 -2.41644,4.73393 -4.33467,6.39525 -1.95686,1.69439 -3.91477,2.51909 -4.91463,5.1935 -0.0849,0.2249 -0.16087,0.4707 -0.0926,0.70115 0.0508,0.16854 0.17198,0.30639 0.29978,0.42889 3.10435,2.92153 8.22087,-3.55309 11.00322,-4.74477 0.55007,8.4193 -0.82364,15.89828 -1.95897,19.0246 -0.76623,2.11005 -1.34382,8.08196 2.51354,5.19244 0.6559,-0.49292 1.02738,-1.74413 1.35837,-2.40665 0.0265,-0.0508 0.27332,0.21167 1.34064,-0.35374 1.23905,-0.65697 2.14869,-1.84547 2.52783,-2.70537 4.18704,0.49054 7.60228,-8.07297 8.64976,-10.95825 -0.031,1.39568 -0.17965,2.37014 -0.54451,3.70973 -0.33073,1.22158 -2.24896,4.84081 -1.17845,4.61142 2.3614,0.39582 4.81753,-4.03146 5.33241,-6.46589 0.45958,-2.1762 0.78607,-3.14854 1.71529,-4.89585 1.11998,-2.10555 1.23031,-4.11639 1.68116,-6.42937 0.73634,-3.77243 0.21061,-7.47237 0.48842,-11.27998 0.1577,-2.14974 0.51806,-5.06678 1.21391,-7.1128 0.69453,-2.04496 1.15094,-1.66343 3.21257,-2.16403 2.71198,-4.0251 7.96846,-43.77742 7.52846,-50.26315 -0.14341,-2.11006 -1.50601,-4.68525 -1.98649,-6.74582 -0.5842,-2.50349 -1.65153,-4.8649 -2.71198,-7.20646 -1.25122,-2.7604 -2.50243,-5.52106 -3.75391,-8.28146 -1.71979,-3.79888 -3.44514,-7.60359 -5.52318,-11.21833 -2.17725,-3.78672 -16.61345,-31.7545 -18.85368,-34.47309 -3.03159,-3.67877 -7.62106,-5.63245 -12.02637,-7.45358 -0.5588,-0.23045 -1.12236,-0.4609 -1.68777,-0.68342 -1.70974,-1.80128 -3.78566,-3.34486 -6.08092,-4.31932 -2.94349,-1.25015 -5.19589,-2.88396 -8.06768,-4.19576 -2.79453,-1.2745 -4.77917,0.0971 -7.73906,0.39582 -1.97326,0.19949 -3.77904,0.13573 -5.73696,0.61621 -0.14341,0.0352 -0.27993,0.0881 -0.42228,0.12779 -1.74519,-0.63288 -3.45069,-1.38588 -5.0239,-2.25663 -0.56436,-0.313 -1.05172,-0.57547 -1.4949,-0.90408 -0.67019,-5.244304 -1.84891,-10.329861 -0.81677,-15.655658 0.75406,-3.900488 2.60059,-7.391665 2.74294,-11.422327 0.13229,-3.756025 0.0529,-7.365206 -0.72655,-11.019896 -0.61304,-2.868612 -1.21047,-6.491023 -2.73182,-9.046633 -1.68222,-2.826544 -4.48681,-1.942571 -6.17485,-4.190206 -4.07458,-5.427398 -9.91737,-5.357813 -16.07132,-3.910277 -4.00076,0.940329 -8.04439,1.76821 -12.02425,2.74955 -1.46526,0.362743 -8.36639,0.445293 -8.73893,2.263245 -0.98107,-0.530225 -1.7727,-1.380331 -1.68671,-2.5654 -1.33271,1.383507 -1.32292,3.849688 -0.45853,5.48349 -1.21496,-0.02752 -2.07698,-1.198298 -3.33481,-0.875242 -0.0254,0.895086 0.71332,1.754981 1.43431,2.369079 -2.16403,-0.676804 -3.95764,1.256771 -4.16613,3.236648 1.04193,-2.141008 4.45162,-2.33045 5.4483,0.123561 0.50827,1.250156 -1.00436,5.545137 1.06812,5.3721 0,4.934479 -1.19062,9.777412 -0.53472,14.255485 0.21934,1.500452 1.35149,2.364581 1.70312,3.656806 0.30877,1.13321 -0.22489,2.653506 -0.20505,3.81979 0.0495,2.925762 1.26233,5.599377 2.0746,8.369564 0.84455,2.876285 2.57413,4.955381 3.67109,7.715781 0.84985,2.13995 1.44093,5.60255 3.85842,6.7138 1.95898,0.89958 4.84638,-0.6051 6.95854,-0.41222 2.66462,0.24262 3.41101,3.4417 4.07565,5.95101 -1.18507,2.95672 -4.0349,5.92322 -5.9489,7.77425 -2.82654,2.73288 -5.94862,4.64 -9.50515,6.21427 -2.21933,0.98001 -4.34922,2.25769 -6.73259,2.85088 -2.45083,0.6096 -4.53311,0.69665 -6.63231,2.15742 -2.47597,1.72296 -4.63127,4.17935 -6.83604,6.23966 -0.0407,0.0386 -0.0794,0.0773 -0.11906,0.11457 -0.12462,-0.0233 -0.24924,-0.0408 -0.37492,-0.0651 -3.10779,-0.59637 -6.19019,-1.47161 -9.35513,-1.54332 -9.73905,-0.22383 -19.21087,7.52846 -29.08644,3.23559 -1.66582,-0.72416 -4.90908,-1.40123 -5.43719,-3.20595 -0.27781,-0.9525 -0.60404,-4.22884 0.34396,-4.88368 1.20491,-0.83132 4.8506,-0.055 6.3246,-0.11695 2.91597,-0.12118 2.82231,-2.0185 3.56314,-4.50453 1.41235,-4.74054 3.50256,-9.68692 3.11097,-14.76057 -0.17092,-2.22912 -1.3925,-4.23334 -2.05502,-6.35344 -0.73765,-2.36141 0.27014,-4.07565 0.38471,-6.39419 0.10795,-2.176196 -1.03849,-3.8563 -1.73646,-5.822948 -0.70432,-1.985433 -1.81028,-3.698611 -3.06361,-5.363369 1.71529,-4.666721 1.15649,-9.1821 -3.1705,-12.155487 -8.50953,-5.850731 -21.61858,-3.598333 -30.4128,0.566737 -6.62781,3.139811 -11.0199,9.459913 -11.96366,16.577204 -0.54901,4.136231 0.19288,6.743703 2.50481,13.294253 -0.96679,-0.0595 -1.80023,0.031 -2.53445,0.23707 -0.71649,-2.7395 -1.43536,-5.47794 -2.15185,-8.21743 -2.10794,-8.044393 -3.21257,-16.126355 -4.89929,-24.227103 -1.56766,-7.531894 -3.38217,-15.014046 -5.43825,-22.427935 -0.94033,-3.389842 -2.60271,-7.056702 -2.90698,-10.561373 -0.27331,-3.1496 -0.75618,-5.959739 -1.60522,-9.066477 -0.40243,-1.472935 -0.82339,-2.94005 -1.26233,-4.402137 -0.27437,-0.912813 -0.56436,-1.840964 -1.11125,-2.622544 -0.67575,-0.96467 -1.702071,-1.63698 -2.784741,-2.1045 -3.35571,-1.44648 -7.10406,-1.03955 -10.65715,-0.9525 -1.82563,0.0442 -3.60601,-0.27437 -5.41179,-0.29316 -1.54887,-0.0153 -3.070224,0.29978 -4.640262,0.12568 -0.782637,-0.0871 -1.558925,-0.10372 -2.343679,-0.20055 -1.881981,-0.23257 -3.979862,-0.93928 -5.810779,-1.40441 -2.732881,-0.69559 -5.03264,-1.6637 -7.765521,-2.29632 -0.362744,-0.0839 -1.273175,-0.36592 -1.55231,-0.0188 -0.188384,0.23469 0.08387,0.89615 0.18415,1.15544 0.403489,1.03637 1.275556,1.69333 2.160852,2.34156 1.423194,1.04405 3.141927,1.79811 4.856162,2.22912 0.946944,0.23812 1.785938,0.36036 2.67679,0.77708 0.697706,0.32623 1.366044,0.11456 2.072481,0.49953 -3.72401,1.284285 -4.430712,1.412343 -6.42276,1.86187 -0.512498,0.116946 -4.08014,0.615156 -4.108715,1.477169 -0.01323,0.354012 0.705644,0.706702 1.150938,0.933714 0.113506,0.05847 -1.029759,0.637117 -1.150938,0.736336 -0.708819,0.577585 -2.697691,1.541198 -2.568575,2.182812 0.286544,1.436423 2.293144,1.8542 4.751388,1.027377 1.168664,-0.392377 2.515658,-1.044046 3.393281,-1.913731 0.41566,-0.411162 8.582554,-1.608402 9.120452,-1.699948 0.382587,-0.06403 0.981075,0.08387 1.400175,0.08149 1.059391,-0.0045 2.10555,-0.241565 3.15833,-0.18415 0.0376,0.715433 0.0561,1.414462 0.15214,2.133071 0.10265,0.766233 -0.0683,0.823648 -0.71888,1.195123 -0.79824,0.455347 -1.494892,0.986631 -2.203711,1.578768 -1.620573,1.357048 -2.925762,3.528748 -3.662362,5.512065 -0.314325,0.846666 -0.163248,1.964531 0.532606,2.611702 0.564356,0.52705 0.855398,0.225954 1.422135,-0.13679 1.503627,-0.961231 2.822311,-1.825625 4.073522,-3.122083 0.58314,-0.602985 1.20597,-1.257829 1.91056,-1.717675 0.69771,-0.455348 1.54781,-0.5842 2.31405,-0.86995 0.82126,-0.305329 1.55998,-0.829998 2.3151,-1.290902 0.24262,-0.14896 0.49715,-0.302154 0.78158,-0.326231 0.27225,-0.02302 0.53895,0.07488 0.80142,0.15875 1.90288,0.602985 4.04363,0.41566 5.81316,-0.508265 -0.39687,0.207169 0.635,13.500365 0.86545,15.127552 0.8136,5.766858 1.47955,11.548004 1.96004,17.353227 1.28772,15.598245 0.69453,31.194378 2.8575,46.679118 1.319471,9.4435 2.815691,18.86135 4.487861,28.24876 0.8345,4.69292 1.71529,9.37948 2.63922,14.05599 0.81915,4.14946 2.26007,7.58693 3.51446,11.58769 2.93582,9.36943 4.35689,19.254 7.53189,28.49351 0,0.0243 0,0.0442 -0.003,0.0693 -0.008,0.8853 0.0153,1.78276 0.0561,2.68658 -1.83012,1.2745 -4.64556,3.19696 -5.05698,3.77481 -0.42439,0.59426 -0.16854,1.40547 0.007,2.11455 0.43207,1.75181 -0.94932,1.73858 -1.48616,3.01837 -0.50933,1.21391 1.08161,2.44078 0.87101,3.74068 -0.23469,1.44965 -1.18719,2.78262 -0.003,4.1992 0.27993,0.33629 0.68792,0.65934 0.64479,1.09352 -0.0484,0.48393 -0.61516,0.71226 -0.90726,1.10014 -0.29765,0.39132 -0.27781,0.9316 -0.0696,1.388 0.0728,0.15664 0.16642,0.30322 0.27781,0.43101 0.4355,0.49715 1.06706,0.76729 1.67799,1.02076 1.04404,0.43339 2.10449,0.91943 3.17288,1.39462 -0.69003,1.47611 -1.62057,2.86306 -2.87285,4.12644 -6.33015,6.38757 -12.8389,14.46159 -17.890331,24.49724 -4.82653,9.59115 -6.49763,24.60519 -8.30024,35.1917 -2.06692,12.14437 -3.64014,24.36918 -5.21229,36.5887 -1.56448,12.15654 -3.1287,24.31177 -4.692916,36.46831 -0.166423,1.28323 -0.310885,2.67335 0.332846,3.79572 0.635,1.10807 1.89071,1.68883 3.10224,2.09576 5.33241,1.79361 11.70464,1.77932 15.56861,5.86819 1.18613,1.25572 2.03623,2.82337 3.356771,3.93568 2.05264,1.73091 4.91781,2.09894 7.6036,2.09233 2.53338,-0.007 5.07232,-0.27993 7.60571,-0.57891 0.82576,7.94094 2.11455,18.71265 2.79135,21.7334 2.2942,10.23382 12.53014,41.59806 14.45075,46.81485 1.24248,3.37899 1.9259,7.38743 1.9259,10.98126 0,2.75061 0.59743,5.01068 0.21061,7.71261 -0.22939,1.60946 -0.2667,3.24008 -0.25453,4.87389 -3.93462,1.17845 -7.53745,2.22038 -9.76206,4.56088 -0.61622,0.64929 -1.43987,2.17303 -1.87855,2.99429 -0.74295,1.38907 -0.0749,3.30412 1.07606,4.18704 1.152,0.88185 5.51657,1.29857 6.9088,1.30518 1.02421,0.006 2.00528,-0.0122 2.97101,-0.0418 -0.28443,2.2225 -0.70564,4.17698 -1.583,4.84849 -3.27528,2.50481 -6.54738,7.95285 -1.34938,8.86248 3.06044,0.53578 16.93783,2.79136 17.93875,-1.44198 0.57097,-2.41644 0.78052,-4.91807 0.6186,-7.39616 0.39026,1.26127 0.7784,2.52227 1.16734,3.78354 0.91731,0.16087 1.88965,-0.009 2.69663,-0.47175 0.2458,-0.13996 -1.15093,-7.15142 -1.23798,-7.90443 -0.0693,-0.61621 -0.11801,-1.1885 -0.14552,-1.73963 3.47715,0.20611 8.10736,0.93927 10.28356,-0.71993 0.54795,-0.41778 1.59967,-1.05516 3.90472,0.0341 3.26099,1.5412 7.02469,1.65814 10.4013,0.32094 0.28548,-0.11245 0.74295,-3.02736 1.04616,-6.85932 0.69771,-0.69454 1.21708,-1.62058 1.65576,-2.51699 4.23016,-8.62435 5.76236,-18.27159 8.20526,-27.56191 2.57096,-9.77741 6.18252,-19.24526 9.78747,-28.68956 0.28892,-0.75856 0.57864,-1.5158 0.86757,-2.27436 1.66793,3.21363 3.606,6.56617 5.82189,9.12363 3.25093,3.75047 6.61564,7.55491 9.37392,11.70014 2.26536,3.40439 4.88818,7.45463 5.70733,11.51599 0.71331,3.54647 -0.59082,6.84609 -1.97459,10.0629 -1.13215,2.62916 -2.86623,6.47461 -2.27436,9.39932 0.33735,1.66026 1.30863,3.35809 1.74837,5.04798 0.57203,2.19155 0.80804,3.80789 1.35387,5.99493 0.35613,1.43193 0.79614,3.50785 0.9107,4.98634 0.10028,1.2954 0.30745,3.56526 0.17754,4.83076 -0.0109,0.11245 2.22144,0.3429 2.22144,0.0738 0,-1.68222 -0.15002,-4.50241 0.0982,-6.16162 0.62071,-4.13199 3.41418,-5.21123 6.58045,-2.59953 3.23665,2.6678 4.98739,6.55717 7.39722,9.92505 4.10977,5.74358 13.74299,6.6511 20.31788,5.68405 2.16747,-0.31856 1.91823,-1.12898 1.15094,-3.13532 -0.63817,-1.66899 -1.74837,-3.61606 -3.31708,-4.58946 -2.20715,-1.36922 -2.70087,-1.22475 -3.71845,-3.92245 -1.5666,-4.15184 -2.48709,-8.67277 -4.3688,-12.68571 -1.71107,-3.64463 -3.92139,-6.97071 -5.60044,-10.60106 -0.98901,-2.13545 -1.46182,-4.4151 -2.29526,-6.60903 -1.20385,-3.16838 -3.10991,-6.06557 -4.48363,-9.16887 -6.52304,-14.76375 -10.12798,-32.58555 -16.66981,-47.35168 -1.465,-3.30729 -3.21019,-9.84568 -4.81436,-16.48566 3.16733,-8.29918 6.33466,-16.59943 9.50304,-24.89941 7.24959,-18.99708 14.54653,-38.09338 24.80681,-55.64954 0.95594,-1.63592 1.94125,-3.25438 2.93581,-4.8694 9.49193,20.60655 19.3212,41.04693 25.55981,62.79992 1.95792,6.8273 4.81092,13.39347 6.75349,20.22078 2.13307,7.49988 2.94243,17.60034 6.44472,24.41098 1.61846,3.14855 5.3557,4.67651 6.9596,7.77558 1.23031,2.37569 0.51488,5.25198 1.21709,7.70811 2.03279,7.11517 8.52513,13.12333 11.29003,20.13161 2.06163,5.22552 3.96531,10.42115 6.2992,15.49453 2.50137,5.44169 5.37316,12.56215 8.78205,17.33576 2.73738,3.83329 10.37061,4.61698 14.87831,6.75138 5.87058,2.78024 10.78178,3.83646 17.34556,3.85286 4.87812,0.0122 12.93257,-0.45085 9.2284,-6.94743 z"
                style="clip-rule:evenodd;fill:#212121;fill-rule:nonzero;stroke-width:0.264583;stroke-linejoin:round;stroke-miterlimit:2"
                id="path1" />
    </g>
</svg>
