<?xml version="1.0" encoding="UTF-8" standalone="no"?>
<svg
   width="424mm"
   height="520mm"
   viewBox="0 0 424 520"
   version="1.1"
   id="svg1"
   xml:space="preserve"
   xmlns="http://www.w3.org/2000/svg"
   xmlns:svg="http://www.w3.org/2000/svg">
    <g id="layer1">
    <path
       d="m 257.72362,203.25831 c -1.10913,-1.57982 -2.218,-3.15965 -3.32713,-4.73948 -0.67257,-0.95805 -1.36367,-1.96241 -1.53247,-3.12102 -0.14896,-1.02077 0.12674,-2.04841 0.37915,-3.0525 1.09246,-0.28337 2.16297,-0.7321 3.04059,-1.40229 0.44,-0.33629 1.00092,-0.73528 1.2237,-1.25228 0.32967,-0.76623 0.0265,-1.64253 0.56012,-2.37251 0.27993,-0.38365 0.72972,-0.64717 0.90302,-1.08929 0.29554,-0.75301 -0.35163,-1.53459 -0.42889,-2.33945 -0.0971,-1.0033 0.70327,-1.95024 0.5379,-2.94455 -0.11139,-0.66807 -0.6395,-1.19724 -0.81465,-1.85208 -0.1741,-0.64373 0.0122,-1.32292 0.0431,-1.98887 0.0497,-1.06813 -0.29422,-1.78144 -0.9062,-2.56858 -0.73078,-0.94033 -0.60404,-1.75948 -0.67257,-2.93238 -0.0442,-0.7694 -0.12356,-1.53802 -0.23151,-2.30293 0.38153,-1.63592 0.72549,-2.77045 0.92816,-2.67017 1.14432,0.56779 1.9976,1.75498 3.07684,3.29618 2.5355,3.61817 13.30536,16.90237 14.25125,19.02698 -2.51566,2.26113 -4.88818,4.67756 -7.41151,6.93102 -0.70459,0.62944 -9.3763,7.71472 -9.61866,7.3742 z m -54.82616,3.38879 c -0.90726,3.40439 -4.41299,6.91991 -6.11188,10.09835 -3.67427,6.87255 -6.028,14.26871 -7.3906,21.9284 -0.41672,2.34368 -0.5006,4.19365 -1.23799,6.49896 -0.055,0.1741 -30.19901,28.67422 -45.83139,43.01358 -2.90036,-7.77002 -5.60467,-15.02172 -7.95734,-21.29684 5.23002,-1.62269 10.74526,-3.76688 10.74526,-4.69186 0,-1.86082 -2.29738,-5.24748 -1.99311,-7.55835 0.25585,-1.9513 1.43431,-3.31946 1.60523,-5.20674 0.37703,-4.16163 -2.56646,-8.53387 -2.78818,-12.89738 -0.18627,-3.68776 -0.0706,-7.42156 -0.0153,-11.1334 0.022,-0.0198 0.0463,-0.0397 0.0683,-0.0595 2.47941,-2.27753 2.13307,-6.22988 1.44092,-9.52606 -2.64371,-12.59972 5.77348,-27.70849 9.68931,-39.50017 5.56842,4.38335 11.13578,8.76644 16.70394,13.14873 2.26774,1.78488 4.55533,3.58299 7.13502,4.87706 7.00273,3.51235 15.26963,2.94455 23.07722,2.29527 2.18625,-0.18177 3.22236,8.65399 2.86094,10.00998 z m -25.12113,-63.86593 c 4.27752,1.3769 11.7684,2.58525 15.91468,4.02511 0.5469,0.18971 1.01653,0.40031 1.41658,0.62839 3.89917,2.22355 1.17952,6.17802 -0.63949,10.1764 -1.35282,2.97445 -1.35599,6.53204 -0.0101,9.51072 -1.74413,0.29659 -3.48932,0.59425 -5.23425,0.89085 -1.71529,-2.60165 -3.81212,-4.95221 -6.20236,-6.95193 -0.43551,-0.3638 -0.89403,-0.73316 -1.14089,-1.2446 -0.62732,-1.30201 0.19844,-3.27872 -1.01758,-4.05924 -0.43868,-0.28231 -1.02077,-0.27887 -1.44304,-0.58526 -0.37253,-0.27225 -0.54901,-0.73422 -0.7067,-1.16972 -0.89403,-2.48391 -5.37316,-10.51825 -5.14615,-11.65384 0.0749,-0.37703 3.10012,0.0762 4.20899,0.43339 z M 81.164776,101.56121 c -3.79677,2.8784 -7.83061,5.55413 -11.856505,8.23515 -2.164028,1.44092 -4.222221,3.07579 -6.24205,4.78129 1.975643,-3.46948 3.936735,-6.94531 5.989637,-10.36055 1.102519,-1.8333 1.973258,-3.77587 3.023918,-5.623458 0.87763,-1.54014 2.29527,-2.672292 0.49954,-3.99415 0.62838,-1.242484 2.96439,-1.826684 4.15184,-2.51804 0.0188,-0.01111 0.0386,-0.02196 0.0574,-0.03413 0.79693,0.338402 1.67349,0.521494 2.46063,0.895085 0.8038,0.383646 1.49701,0.961232 2.1807,1.533525 1.9259,1.609461 3.8518,3.219186 5.77797,4.829704 -2.227,0.301096 -4.35134,0.973404 -6.04256,2.255574 z M 411.57751,457.4885 c -0.3736,-3.94229 -5.67637,-6.32566 -8.68495,-8.5934 -1.97776,-1.49278 -3.65998,-3.21152 -5.84835,-4.36563 -2.31193,-1.2192 -4.59502,-2.41776 -6.58045,-4.11983 -3.80683,-3.26204 -6.81302,-7.13263 -11.09372,-10.0576 -2.9964,-2.04841 -6.07536,-4.1783 -8.51085,-6.86277 -2.48047,-2.73499 -4.16269,-6.05446 -6.14151,-9.126 -4.04812,-6.28386 -6.64316,-12.88865 -9.54828,-19.69717 -8.94186,-20.95183 -20.61104,-36.51806 -37.18825,-51.15163 0.33841,-0.0849 0.68236,-0.16087 1.03399,-0.21829 3.25332,-0.54133 6.68629,0.3011 9.83483,-0.67918 2.78368,-0.86863 4.81648,-3.09219 5.98302,-5.70177 0.69771,-1.56316 0.41011,-2.92259 0.87525,-4.46802 0.48074,-1.59306 1.88515,-2.90724 3.24987,-3.77031 2.44078,-1.54464 4.93898,-2.5654 6.63337,-5.01492 1.64492,-2.37675 2.45745,-5.34246 2.16509,-8.2251 -0.031,-0.30215 -0.0749,-0.61066 -0.22834,-0.87418 -0.17859,-0.30745 -0.48392,-0.51594 -0.77946,-0.71438 -2.21694,-1.4851 -27.61139,-23.31852 -34.15321,-29.81298 -15.46595,-15.35457 -27.35686,-33.79602 -38.21245,-52.57377 -2.83554,-4.90352 -5.60149,-9.89859 -8.66616,-14.56981 6.52092,-3.98965 15.50564,-9.63533 18.23191,-11.51599 5.14403,-3.54647 10.15338,-6.9289 14.1597,-11.61732 3.72851,-4.36563 -6.39524,-20.7092 -9.64406,-24.40437 -7.40278,-8.41481 -12.60845,-18.89337 -17.31804,-28.88272 -1.96559,-4.16719 -4.85192,-9.83271 -9.65385,-11.09927 -3.62373,-0.95594 -9.1567,-3.35253 -11.67818,-6.1505 -0.004,0.0585 -0.01,0.11244 -0.0153,0.16986 -0.81254,-0.89403 -1.65577,-1.73752 -2.54873,-2.49582 -0.0651,-0.29553 -0.13018,-0.59081 -0.19527,-0.88635 -0.20955,-0.957 -0.44106,-1.91267 -0.63156,-2.8739 -0.16854,-0.85328 -0.0362,-1.82219 0.14103,-2.6723 0.031,-0.14657 0.0672,-0.29871 0.16536,-0.41116 0.46408,-0.53366 0.62839,0.66596 0.75062,0.92816 0.18415,0.39688 0.47176,0.65802 0.7419,0.98875 3.91795,4.79769 14.401,1.49833 16.33907,-3.95102 0.92605,-2.60403 -0.0362,-5.95313 -2.54661,-7.10618 6.04361,-1.70445 10.74552,-7.395107 11.27892,-13.651444 0.53367,-6.257396 -3.13637,-12.661371 -8.80401,-15.364619 -2.53894,-1.211527 -5.35014,-2.5908 -7.52078,-0.801423 -0.39476,-2.56196 -1.01415,-3.966633 -2.1717,-6.359789 -1.10569,-2.28653 -2.91042,-4.171686 -5.02814,-5.549636 -3.63696,-2.365904 -7.75679,-2.356908 -11.89964,-2.662502 -0.27781,-0.0209 -0.55562,-0.0418 -0.83343,-0.06615 -1.92829,-0.167481 -4.14946,-0.264583 -5.72268,-1.39356 -1.70868,-1.224757 -2.6789,-3.39434 -4.33705,-4.71514 -2.39448,-1.910556 -5.29378,-1.966648 -7.95946,-0.402431 -2.16297,1.27 -9.5758,7.697258 -6.11187,10.692606 -7.38744,5.154877 -10.13804,12.370329 -10.19652,20.61554 -0.023,3.278716 -1.41763,4.193645 -3.56208,5.541962 -1.55099,0.975783 -3.77349,1.059392 -2.57307,3.167327 1.26126,2.214827 2.80008,2.046023 3.1496,4.804304 0.24473,1.925901 0.73316,3.146421 1.30201,4.861721 1.24142,3.74703 0.50271,9.30222 6.06557,8.24944 2.14101,-0.40455 5.8936,-0.77179 8.0907,-1.02632 0.85989,-0.0992 1.71318,0.0209 2.54,0.28893 0.70564,0.40455 1.1983,1.1422 2.32278,2.12645 1.52241,1.33297 2.97868,2.75617 4.3688,4.24657 0.0198,0.0418 0.0442,0.0849 0.064,0.12673 0.81253,1.75075 1.33164,3.61156 1.83329,5.48032 -0.12012,0.15319 -0.2413,0.30427 -0.36036,0.45746 -1.80578,-0.63394 -3.61606,-1.24566 -5.51339,-1.38139 -2.39792,-0.17092 -4.72069,0.46858 -7.1075,0.53023 -6.27512,0.16324 -12.63703,0.75062 -18.89231,0.53128 -8.68706,-0.30533 -17.17252,-3.07472 -25.59632,-4.9874 -3.28533,-0.74533 -6.51325,-2.25663 -9.6176,-3.71078 -4.95221,-2.32066 -10.00787,-4.64661 -15.28842,-6.10314 0.17859,-0.36592 0.35718,-0.72311 0.53472,-1.06151 1.04193,-1.97882 2.09471,-3.52901 4.29842,-3.36576 1.90394,0.14208 3.84863,1.13109 5.75575,1.43642 2.21932,0.35375 3.34354,0.46646 4.40081,-1.59861 0.73872,-1.44092 0.91943,-3.21919 1.84653,-4.563007 0.32517,-0.470694 0.88635,-0.74639 1.19618,-1.201738 0.30877,-0.449792 0.31194,-1.108075 0.61621,-1.498071 0.16749,-0.215106 0.4752,-0.241564 0.73211,-0.337344 1.42769,-0.534722 0.66489,-2.001043 1.08161,-3.009635 0.35719,-0.86651 1.64042,-1.762654 2.4937,-2.026179 1.26894,-0.392377 3.34248,0.354012 4.24868,-1.127654 0.6395,-1.044046 0.032,-3.729567 -0.12224,-4.869392 -0.69347,-5.1308 -3.5089,-10.485173 -0.006,-15.346891 0.16642,-0.231511 0.39026,-0.472811 0.67574,-0.471752 0.32967,0 0.5588,0.313002 0.73422,0.592137 0.86439,1.371336 2.10238,2.871788 3.71634,2.725208 -2.30399,-1.483783 -3.30068,-4.706143 -2.23785,-7.233179 -0.0254,0.960173 0.30216,1.925902 0.90408,2.67335 -0.3593,-0.975783 0.10372,-2.076979 0.76941,-2.876285 0.66596,-0.799307 1.52903,-1.417638 2.17832,-2.230173 0.57335,-0.71755 0.93927,-1.581944 1.10569,-2.484967 1.14988,-0.315383 2.00104,-1.396735 2.25769,-2.569633 0.26564,-1.217083 -0.0154,-2.495815 -0.49609,-3.644635 -0.96467,-2.302934 -2.75485,-4.249738 -4.96967,-5.403057 -1.56978,-0.81571 -3.31497,-1.23481 -4.94215,-1.928018 -3.1795,-1.357048 -4.51221,-4.550833 -7.71711,-5.992813 -3.72612,-1.676664 -7.02574,-2.478352 -11.00349,-2.764895 -2.07142,-0.148961 -4.13861,-1.039548 -6.19575,-1.440921 -2.50137,-0.487363 -4.49791,-1.953419 -7.10062,-2.209271 -2.31828,-0.228335 -4.63576,0.207169 -6.82731,0.964671 -0.49159,0.170921 -0.9779,0.357187 -1.45521,0.555625 -4.13623,1.721908 -7.83722,3.367881 -10.71906,7.021512 -2.78924,3.536686 -5.23769,8.650817 -5.74252,13.178366 -0.18732,1.684603 0.33841,3.180557 -0.064,4.863836 -0.48286,2.017448 -1.80684,3.581664 -1.388,5.777706 0.34184,1.78144 1.65153,3.227917 1.94469,5.008298 0.27437,1.662377 -0.17198,3.459427 -0.005,5.139531 0.3593,3.601509 3.08451,8.132763 -1.53247,10.451042 1.25995,0.125677 2.65139,0.142081 3.69412,-0.686858 -1.40124,1.115747 -0.45085,3.156214 -0.63844,4.59052 -0.22596,1.731963 -1.99099,3.199342 -3.19273,4.323821 -1.62163,1.518179 -2.94349,2.130954 -5.25859,1.933575 -2.1717,-0.185208 -4.16719,-1.217083 -6.01372,-2.307431 -2.981064,-1.761596 -5.877194,-3.691996 -8.472224,-5.992813 -0.65934,-0.5842 -1.2999,-1.1938 -1.91611,-1.8288 -0.43551,-0.447675 -0.86651,-0.919427 -1.12898,-1.486164 -0.33523,-0.72099 -0.37492,-1.539081 -0.40905,-2.33389 -0.031,-0.703262 -0.0706,-1.401233 -0.10795,-2.095764 0.44874,-0.357188 0.8554,-0.786077 1.152,-1.424252 0.31194,-0.673629 0.15425,-1.332971 0.45429,-1.974586 0.28654,-0.611716 0.98663,-0.601927 1.21814,-1.383506 0.40005,-1.350433 -0.37491,-3.312848 -0.21378,-4.528873 0.17859,-1.355989 0.63156,-2.374635 0.0815,-3.847571 -0.45641,-1.221581 -0.68898,-1.186127 -0.65141,-2.376752 0.0693,-2.170642 1.40997,-5.485606 0.0595,-7.552796 -1.12448,-1.723231 -4.34923,-0.431006 -6.17459,-0.03307 -3.03715,0.661459 -6.10526,1.9558 -8.70161,3.671094 -1.21259,0.687917 -2.18837,1.566598 -2.63155,2.678906 -0.0529,0.13335 -0.0915,0.271198 -0.13335,0.407988 -0.59981,1.191683 -0.95356,2.525713 -1.34382,3.986477 -0.96017,3.587221 -2.564339,6.736821 -4.972047,9.435571 -0.651669,0.730779 -2.21271,3.318404 -3.011752,3.646752 -0.383646,0.157692 -0.72099,0.173037 -1.026319,0.09366 -1.149879,-0.302154 -1.691217,-2.668852 -2.848769,-2.551112 -1.50151,0.153194 -5.856022,6.685227 -12.126647,12.398904 -0.339461,0.310885 -0.897467,0.242623 -1.291961,0.479425 -0.688975,0.413279 -0.942446,1.263385 -1.235868,2.011892 -0.918369,2.343679 -2.761721,4.31165 -5.041371,5.381094 -0.783961,0.3683 -1.640417,0.64929 -2.253456,1.26127 -0.467519,0.46514 -0.750623,1.07923 -1.021821,1.6801 -3.926946,8.7003 -9.68375,16.60578 -16.531961,23.25582 -2.905918,2.82099 -4.374356,6.21427 -6.333595,9.76418 -1.067065,1.93358 -0.853282,4.18359 -1.418696,6.31905 -1.135592,4.29736 -0.0077,9.07071 2.721769,12.57882 2.155295,2.76807 6.357672,5.9698 10.049668,6.08436 0.362744,0.0101 0.706702,-0.0254 1.041665,-0.0839 4.998508,0.66913 9.784027,0.15319 14.405504,-2.07804 4.315883,-2.08466 8.834966,-3.58405 13.581856,-4.27514 3.216804,-0.46752 6.709304,-1.2491 9.977966,-0.80486 2.9083,0.39581 3.621617,1.89732 5.566305,2.8829 -1.681163,2.59292 0.4146,3.90366 0.50271,6.33333 0.0352,0.98346 -0.68686,2.35691 -0.75195,3.44514 -0.11906,1.97565 0.43101,3.69438 0.67469,5.62028 1.20174,9.45886 -10.356321,35.40019 -11.886407,38.27516 -3.296179,6.19125 -19.098418,31.45128 -17.538435,34.68026 1.38139,2.85855 5.507831,5.82956 7.891198,7.87241 2.949046,2.52677 6.137275,4.78578 9.594585,6.56616 0.223838,0.11457 0.452967,0.21934 0.677863,0.33073 0.146579,5.77903 0.802481,11.54457 1.974585,17.20665 4.953265,23.91833 4.626769,49.04608 3.230034,73.41738 -1.539082,0.1344 -2.606146,1.74625 -2.683405,3.2885 -0.07726,1.54332 0.577586,3.01731 1.218142,4.4241 -0.943769,0.22939 -1.888331,0.45985 -2.833158,0.69003 -0.08811,1.62825 1.662377,2.22462 -0.798248,6.24311 -17.393179,28.39429 -35.425591,64.57818 -40.302656,70.54241 -4.449498,5.44169 -9.825831,11.32761 -12.244652,18.0467 1.591998,1.1983 3.385608,2.12646 5.282936,2.73394 -1.748367,5.43402 -3.159655,11.39799 3.630347,13.09582 4.095486,1.00859 9.313334,2.33945 12.9921,0.10372 2.709863,-1.64492 1.557867,-3.03504 5.257536,-2.50905 2.079095,0.2966 4.64132,1.73302 7.015956,2.10794 9.38821,1.48272 21.152379,3.82111 30.279449,-0.18627 6.44048,-2.82786 3.90366,-9.09399 -2.503491,-9.41255 -2.584186,-0.12912 -4.925748,0.13891 -7.391929,-0.85116 -2.655888,-1.06601 -4.469342,-3.15966 -7.557294,-3.56315 2.347119,-6.70057 39.439584,-64.2067 41.018094,-67.89975 0.49265,-1.15094 2.23678,-2.34262 2.87628,-3.66104 0.65484,-1.34832 2.681024,-1.9005 3.173944,-3.28533 0.75512,-2.12329 -0.1434,-1.60179 1.06495,-3.54992 5.51312,-8.89 7.47898,-20.18109 8.99239,-31.04779 3.88171,7.90654 7.40172,14.57298 9.64195,17.27067 0.0627,0.0749 0.13996,0.1786 0.20611,0.26115 -1.57321,11.75967 -2.80353,24.94359 -3.3237,38.42411 -0.23706,6.13516 -0.3892,13.02623 -2.31298,18.89443 -1.07818,3.29088 -2.77813,5.95312 -3.35148,9.45118 -0.63394,3.87508 -1.01203,7.50305 -1.1983,11.41015 -0.2667,5.56842 1.35599,13.58186 -1.01653,18.66741 -1.39779,2.99535 -9.13474,4.61249 -10.16555,7.02363 -1.355994,3.17183 5.12947,3.80127 8.03989,3.88065 4.59819,0.12567 12.49045,-1.12236 16.72616,-3.23453 6.63337,-3.30624 0.93716,-13.32839 4.65006,-19.254 1.14644,-1.82906 3.30385,-4.69741 5.64779,-2.88184 2.26113,1.75287 5.37766,11.03418 5.73485,13.0892 0.53789,-0.14234 1.24909,-0.10133 1.61713,-0.6559 0.0463,-0.7022 -1.94125,-7.24191 -2.63049,-10.00019 -0.59214,-2.37014 -1.09035,-5.75125 -1.71212,-8.11292 -0.85778,-3.25649 -0.64717,-5.79887 -1.10913,-9.05642 -0.61727,-4.3569 -5.45253,-5.82189 -5.8838,-7.62318 -0.9525,-3.96769 1.71529,-12.80133 2.41326,-16.76347 0.39132,-2.21588 2.13757,-7.83166 4.45929,-14.98653 6.78206,12.96353 13.82553,25.76936 21.92522,37.72747 4.6027,6.79662 8.74766,13.91814 13.22705,20.80498 2.19816,3.38005 4.76806,6.55188 6.90775,9.95707 0.67019,1.066 1.5621,4.01293 2.59847,4.70191 4.66884,3.10224 12.93812,-5.04138 16.64679,-0.91837 1.99099,2.21377 0.45984,7.75996 2.87946,9.45329 0.57203,0.40032 1.30519,0.45641 1.99866,0.5006 4.48786,0.27781 8.97387,0.55668 13.46068,0.83555 -0.0442,-0.42545 -0.0881,-0.85222 -0.13335,-1.27873 10.43437,3.5388 20.64517,3.10674 31.49653,3.10674 3.27739,-0.42545 8.76644,-0.64612 11.68241,-1.97327 3.01413,-1.37265 4.22222,-4.58284 -0.28998,-5.86157 -3.11203,-0.88186 -6.46245,-0.9525 -9.39721,-2.32172 -4.66116,-2.1762 -7.35224,-7.14481 -11.36729,-10.3804 -4.67969,-3.77137 -10.04094,-6.25951 -14.47827,-10.47406 -5.93989,-5.6433 -9.72661,-12.90955 -15.29186,-18.72695 -3.63246,-3.79465 -9.16569,-5.35992 -11.70781,-10.20841 -2.03729,-3.88832 -1.28878,-9.64063 -5.35437,-12.30868 -1.35493,-0.88953 -3.06599,-1.17079 -4.29498,-2.23018 -2.744,-2.36352 -1.60179,-6.86805 -2.77495,-10.31557 -0.9525,-2.79691 -3.39223,-4.7416 -5.46365,-6.83075 -1.39779,-1.40785 -6.3545,-13.40564 -12.74974,-29.83733 3.67109,1.09591 7.31573,2.38575 9.75095,5.24987 1.72641,2.02856 2.62705,4.63126 4.15502,6.81302 4.41643,6.30581 12.9712,7.90098 20.65285,8.41375 8.25605,0.55112 16.5563,0.45534 24.79807,-0.28443 2.82787,-0.25347 5.74252,-0.61304 8.19335,-2.04391 1.57877,-0.92154 2.89163,-2.25001 4.48019,-3.1541 6.88684,-3.92456 15.8242,1.2745 23.3979,-1.066 2.76807,-0.85672 5.20674,-2.73844 6.7347,-5.20012 1.16205,-1.87087 1.83568,-4.08464 3.3999,-5.63351 3.68882,-3.65125 9.79408,-1.78805 14.9733,-2.12434 1.37795,-0.0892 2.90592,-0.2667 4.47807,-0.51382 8.79078,8.98472 20.81821,21.46538 23.97575,24.51364 4.94321,4.77124 8.65531,10.58651 13.65806,15.40325 4.27408,4.11771 9.3165,9.82478 13.05057,14.45075 6.07007,7.51866 10.65292,12.5566 16.90582,21.708 2.64027,3.86292 4.12406,8.56695 6.79106,12.39467 3.6822,5.28717 8.90005,9.11146 13.14211,13.94143 4.9829,5.6732 9.48849,13.16858 18.06999,13.19927 3.44302,0.0122 6.8879,-0.47175 10.1854,-1.43087 1.20597,-0.34951 2.33495,-4.61592 2.61382,-5.6642 0.57441,-2.13863 0.76623,-4.37541 0.55668,-6.57595 z"
       style="clip-rule:evenodd;fill:#000000;fill-rule:nonzero;stroke-width:0.264583;stroke-linejoin:round;stroke-miterlimit:2"
       id="path2" />
    </g>
</svg>
