<?xml version="1.0" encoding="UTF-8" standalone="no"?>
<!-- Created with Inkscape (http://www.inkscape.org/) -->

<svg
   width="160mm"
   height="160mm"
   viewBox="0 0 160 160"
   version="1.1"
   id="svg1"
   inkscape:version="1.4.3 (0d15f75, 2025-12-25)"
   sodipodi:docname="Turnsaal Purkersdorf.svg"
   xmlns:inkscape="http://www.inkscape.org/namespaces/inkscape"
   xmlns:sodipodi="http://sodipodi.sourceforge.net/DTD/sodipodi-0.dtd"
   xmlns="http://www.w3.org/2000/svg"
   xmlns:svg="http://www.w3.org/2000/svg">
  <sodipodi:namedview
     id="namedview1"
     pagecolor="#ffffff"
     bordercolor="#000000"
     borderopacity="0"
     inkscape:showpageshadow="2"
     inkscape:pageopacity="0.0"
     inkscape:pagecheckerboard="0"
     inkscape:deskcolor="#d1d1d1"
     inkscape:document-units="mm"
     inkscape:zoom="1"
     inkscape:cx="-86"
     inkscape:cy="347.5"
     inkscape:window-width="2560"
     inkscape:window-height="1369"
     inkscape:window-x="-8"
     inkscape:window-y="-8"
     inkscape:window-maximized="1"
     inkscape:current-layer="svg1"
     showgrid="true">
    <inkscape:grid
       id="grid10"
       units="mm"
       originx="0"
       originy="0"
       spacingx="0.99999997"
       spacingy="0.99999997"
       empcolor="#e200e5"
       empopacity="0.30196078"
       color="#0099e5"
       opacity="0.14901961"
       empspacing="10"
       enabled="true"
       visible="true" />
  </sodipodi:namedview>
  <defs
     id="defs1" />
  <g
     id="g9"
     inkscape:label="Volleyball">
    <path
       style="fill:#00ccff;stroke:#000000;stroke-width:1;stroke-dasharray:none"
       d="M 34.96102,50.01882 125.022,50.01114"
       id="path5"
       sodipodi:nodetypes="cc"
       inkscape:label="topLine" />
    <path
       style="fill:#00ccff;stroke:#000000;stroke-width:1;stroke-dasharray:none"
       d="m 34.949411,110.0091 90.060979,-0.008"
       id="path5-2"
       sodipodi:nodetypes="cc"
       inkscape:label="btmLine" />
    <rect
       style="fill:none;stroke:#000000;stroke-width:1;stroke-dasharray:none;stroke-opacity:1"
       id="rect8"
       width="89.998253"
       height="180.08348"
       x="35.02422"
       y="-10.004558" />
    <rect
       style="fill:none;stroke:#000000;stroke-width:1;stroke-dasharray:4,4;stroke-opacity:1;stroke-dashoffset:0"
       id="rect9"
       width="119.98853"
       height="179.91666"
       x="19.976042"
       y="-9.921875" />
  </g>
  <g
     id="g13"
     inkscape:label="Basketball"
     style="stroke-width:0.5;stroke-dasharray:none;stroke:#4a94a4;stroke-opacity:1">
    <path
       d="M 7.7395567,-54.791157 H 152.35564 V 214.7681 H 7.7395567 V -54.791157 m -0.4820514,-0.478274 v 0.477942 269.559589 0.47794 H 7.7395567 152.35564 152.83769 V 214.7681 -54.791157 -55.269099 H 152.35564 7.7395567 7.2575053 Z"
       id="path1"
       style="fill:#00ccff;stroke-width:0.5;stroke-dasharray:none;stroke:#4a94a4;stroke-opacity:1"
       inkscape:label="Field" />
    <g
       id="g11"
       inkscape:label="Center"
       style="stroke-width:0.5;stroke-dasharray:none;stroke:#4a94a4;stroke-opacity:1">
      <rect
         x="-80.230431"
         y="7.7408948"
         width="0.47794196"
         height="144.61609"
         id="rect1"
         style="fill:#00ccff;stroke-width:0.5;stroke-dasharray:none;stroke:#4a94a4;stroke-opacity:1"
         transform="rotate(-90)" />
      <path
         d="m 97.402789,79.990131 c 0,9.486484 -7.78513,17.204251 -17.354185,17.204251 -9.56872,0 -17.353515,-7.717767 -17.353515,-17.204251 0,-9.488475 7.784795,-17.207901 17.353515,-17.207901 9.569055,3.32e-4 17.354185,7.719426 17.354185,17.207901 z m -34.225983,0 c 0,9.222952 7.568541,16.726309 16.871464,16.726309 9.303257,0 16.872133,-7.503357 16.872133,-16.726309 0,-9.224611 -7.568876,-16.729628 -16.872133,-16.729628 -9.302923,0 -16.871464,7.505017 -16.871464,16.729628 z"
         id="path25"
         style="fill:none;stroke-width:0.5;stroke-dasharray:none;stroke:#4a94a4;stroke-opacity:1" />
      <path
         d="m 86.194425,79.989467 c 0,3.359534 -2.757401,6.092764 -6.14649,6.092764 -3.389089,0 -6.146155,-2.73323 -6.146155,-6.092764 0,-3.360529 2.757066,-6.094755 6.146155,-6.094755 3.389089,0 6.14649,2.733894 6.14649,6.094755 z m -11.810259,0 c 0,3.096002 2.540812,5.614822 5.663769,5.614822 3.123291,0 5.664104,-2.51882 5.664104,-5.614822 0,-3.097329 -2.540813,-5.616813 -5.664104,-5.616813 -3.122957,0 -5.663769,2.519484 -5.663769,5.616813 z"
         id="path26"
         style="fill:#00ccff;stroke-width:0.5;stroke-dasharray:none;stroke:#4a94a4;stroke-opacity:1" />
    </g>
    <g
       id="g10"
       inkscape:label="Top"
       style="stroke-width:0.5;stroke-dasharray:none;stroke:#4a94a4;stroke-opacity:1">
      <path
         d="M 57.387064,-54.808187 H 102.69989 V -0.80074746 H 57.387064 V -54.808187 m -0.482052,-0.477942 V -0.32280552 H 103.18195 V -55.286129 Z"
         id="path2-9"
         style="fill:#00ccff;stroke-width:0.5;stroke-dasharray:none;stroke:#4a94a4;stroke-opacity:1" />
      <path
         d="m 77.879038,-39.736982 c 0,-1.186889 0.971133,-2.150075 2.169232,-2.150075 1.198768,0 2.1699,0.962854 2.1699,2.150075 0,1.187221 -0.971132,2.151735 -2.1699,2.151735 -1.198099,3.32e-4 -2.169232,-0.964514 -2.169232,-2.151735 m -0.482051,0 c 0,1.450089 1.189395,2.629677 2.651283,2.629677 1.462557,0 2.651952,-1.179588 2.651952,-2.629677 0,-1.449093 -1.18973,-2.627685 -2.651952,-2.627685 -1.461888,0 -2.651283,1.178924 -2.651283,2.627685 z"
         id="path30"
         style="fill:#00ccff;stroke-width:0.5;stroke-dasharray:none;stroke:#4a94a4;stroke-opacity:1" />
      <rect
         x="43.320557"
         y="71.372017"
         width="0.47794196"
         height="17.353516"
         id="rect30"
         style="fill:#00ccff;stroke-width:0.5;stroke-dasharray:none;stroke:#4a94a4;stroke-opacity:1"
         transform="rotate(-90)" />
      <rect
         x="41.911625"
         y="79.806572"
         width="1.6465764"
         height="0.4820514"
         id="rect33"
         style="fill:#00ccff;stroke-width:0.5;stroke-dasharray:none;stroke:#4a94a4;stroke-opacity:1"
         transform="rotate(-90)" />
      <rect
         x="-25.980028"
         y="7.7408948"
         width="0.47794196"
         height="8.6772594"
         id="rect34"
         style="fill:#00ccff;stroke-width:0.5;stroke-dasharray:none;stroke:#4a94a4;stroke-opacity:1"
         transform="rotate(-90)" />
      <rect
         x="-25.980028"
         y="143.67772"
         width="0.47794196"
         height="8.6775951"
         id="rect35"
         style="fill:#00ccff;stroke-width:0.5;stroke-dasharray:none;stroke:#4a94a4;stroke-opacity:1"
         transform="rotate(-90)" />
      <path
         d="m 97.402789,-0.54474649 c 0,9.48747959 -7.78513,17.20591049 -17.354185,17.20591049 -9.56872,0 -17.353515,-7.7184309 -17.353515,-17.20591049 h 0.482051 c 0,9.22394769 7.568542,16.72796849 16.871464,16.72796849 9.303257,0 16.872134,-7.5040208 16.872134,-16.72796849 z"
         id="path47"
         style="fill:#00ccff;stroke-width:0.5;stroke-dasharray:none;stroke:#4a94a4;stroke-opacity:1" />
      <path
         d="m 97.410154,-0.54972505 c 0,0.37604738 -0.01306,0.75806903 -0.0385,1.13511212 L 96.89061,0.55319237 c 0.02477,-0.36642216 0.03716,-0.73782288 0.03716,-1.10324932 0,-0.002323 0,-0.004647 0,-0.00697 0,-0.84436405 -0.06595,-1.69569815 -0.195499,-2.53076895 l 0.476361,-0.073019 c 0.133568,0.8589678 0.201524,1.7348628 0.201524,2.60345594 0,0.002987 0,0.00531 0,0.007634 z M 96.711179,4.2764929 c -0.354174,1.204812 -0.840577,2.3697955 -1.445484,3.4627558 l -0.4228,-0.2300096 c 0.58817,-1.0624251 1.061183,-2.1952139 1.405314,-3.3665036 z m -0.48406,-11.0570542 -0.449245,0.1735859 c -0.445563,-1.1324569 -1.017329,-2.2197748 -1.699566,-3.2317505 l 0.400706,-0.2655231 c 0.701652,1.0408511 1.289822,2.1590361 1.748105,3.3236877 z M 93.093785,10.80737 c -0.832208,0.93763 -1.771204,1.787636 -2.791211,2.526787 L 90.01803,12.948484 c 0.991553,-0.718904 1.904437,-1.545346 2.713547,-2.456754 z m -1.04344,-23.782922 -0.333419,0.34518 c -0.886439,-0.84204 -1.866945,-1.588161 -2.914402,-2.217451 l 0.249729,-0.408574 c 1.077586,0.647213 2.086211,1.414575 2.998092,2.280845 z m -5.022708,28.181316 c -1.156588,0.504494 -2.369751,0.883861 -3.605677,1.127146 l -0.09373,-0.468648 c 1.201446,-0.236648 2.381133,-0.605725 3.505584,-1.09628 z m -1.403305,-32.041361 -0.154323,0.452717 c -0.456275,-0.153007 -0.92661,-0.288756 -1.396945,-0.403263 -0.721403,-0.175577 -1.45921,-0.305352 -2.19233,-0.385673 l 0.05289,-0.475286 c 0.753875,0.08264 1.512436,0.216069 2.25426,0.396625 0.483725,0.118158 0.967115,0.257889 1.436446,0.41488 z m -5.958691,33.014504 -0.01138,0.47761 c -1.255677,-0.02921 -2.51671,-0.196155 -3.747615,-0.496197 -0.970463,-0.235984 -1.92285,-0.555275 -2.831048,-0.948582 l 0.192821,-0.437781 c 0.882756,0.382353 1.809031,0.692684 2.753049,0.922361 1.197429,0.291412 2.423312,0.454045 3.644174,0.482589 z m -1.461218,-33.35205 c -1.217849,0.132429 -2.424986,0.39928 -3.587935,0.792255 l -0.155663,-0.452386 c 1.19609,-0.404259 2.438042,-0.678412 3.690706,-0.814824 z m -6.918442,2.334945 c -1.049466,0.631946 -2.030641,1.378066 -2.916745,2.217784 l -0.333085,-0.345513 c 0.911212,-0.863614 1.920172,-1.630977 2.999766,-2.280513 z m -1.203454,27.796971 -0.284879,0.385673 c -1.01666,-0.737159 -1.954652,-1.588494 -2.788199,-2.529442 l 0.362208,-0.315309 c 0.810449,0.91506 1.722664,1.742165 2.71087,2.459078 z M 66.007184,-9.831424 c -0.680228,1.0099842 -1.249986,2.097966 -1.693206,3.2337419 l -0.44958,-0.1725902 c 0.455606,-1.1683025 1.041767,-2.2874832 1.741746,-3.3266747 z M 65.260674,7.5168729 64.838209,7.7472144 C 64.22895,6.6502712 63.739868,5.4859516 63.38469,4.2867819 l 0.462636,-0.134753 c 0.345135,1.1659792 0.820826,2.2981042 1.413348,3.364844 z m -1.8954,-10.5930522 c -0.187799,1.2028206 -0.24203,2.43219348 -0.161353,3.64065641 l -0.481047,0.0315309 c -0.08335,-1.24298097 -0.02711,-2.50786761 0.16604,-3.74487431 z"
         id="path48"
         style="fill:#00ccff;stroke-width:0.5;stroke-dasharray:none;stroke:#4a94a4;stroke-opacity:1" />
      <path
         d="m 91.978037,-43.316568 v 3.550047 c 0,6.521252 -5.351105,11.82674 -11.928763,11.82674 -6.578328,0 -11.930103,-5.305488 -11.930103,-11.82674 v -3.550047 h 0.482052 v 3.550047 c 0,6.25772 5.135521,11.348798 11.448051,11.348798 6.311525,0 11.446712,-5.091078 11.446712,-11.348798 v -3.550047 z"
         id="path49"
         style="fill:#00ccff;stroke-width:0.5;stroke-dasharray:none;stroke:#4a94a4;stroke-opacity:1" />
      <path
         d="m 143.67872,-54.791157 v 40.757827 l -0.0181,0.04348 c -5.10037,12.3753775 -13.69896,22.9219631 -24.86649,30.499334 -11.43633,7.759919 -24.834681,11.86159 -38.74655,11.86159 -13.911534,0 -27.30955,-4.101339 -38.745215,-11.860594 C 30.135196,8.9334398 21.536269,-1.612814 16.435563,-13.987859 l -0.01808,-0.04348 -6.69e-4,-40.759818 h 0.482051 V -14.1256 c 10.542531,25.527411 35.324324,42.018399 63.148732,42.018399 27.826083,0 52.607883,-16.491652 63.148733,-42.020058 v -40.663898 z"
         id="path50"
         style="fill:#00ccff;stroke-width:0.5;stroke-dasharray:none;stroke:#4a94a4;stroke-opacity:1" />
    </g>
    <g
       id="g12"
       inkscape:label="Bottom"
       style="stroke-width:0.5;stroke-dasharray:none;stroke:#4a94a4;stroke-opacity:1">
      <path
         d="M 57.392189,160.76066 H 102.70502 V 214.7681 H 57.392189 v -54.00744 m -0.482051,-0.47794 v 54.96332 h 46.276932 v -54.96332 z"
         id="path2"
         style="fill:#00ccff;stroke-width:0.5;stroke-dasharray:none;stroke:#4a94a4;stroke-opacity:1" />
      <path
         d="m 77.879038,199.71293 c 0,-1.18722 0.971133,-2.15074 2.169232,-2.15074 1.198768,0 2.1699,0.96385 2.1699,2.15074 0,1.18755 -0.971132,2.15074 -2.1699,2.15074 -1.198099,3.3e-4 -2.169232,-0.96319 -2.169232,-2.15074 m -0.482051,0 c 0,1.44942 1.189395,2.62868 2.651283,2.62868 1.462557,0 2.651952,-1.17926 2.651952,-2.62868 0,-1.44943 -1.18973,-2.62868 -2.651952,-2.62868 -1.461888,0 -2.651283,1.17925 -2.651283,2.62868 z"
         id="path3"
         style="fill:#00ccff;stroke-width:0.5;stroke-dasharray:none;stroke:#4a94a4;stroke-opacity:1" />
      <rect
         x="-203.77477"
         y="71.372017"
         width="0.47794196"
         height="17.353516"
         id="rect3"
         style="fill:#00ccff;stroke-width:0.5;stroke-dasharray:none;stroke:#4a94a4;stroke-opacity:1"
         transform="rotate(-90)" />
      <rect
         x="-203.53548"
         y="79.806572"
         width="1.6462445"
         height="0.4820514"
         id="rect5"
         style="fill:#00ccff;stroke-width:0.5;stroke-dasharray:none;stroke:#4a94a4;stroke-opacity:1"
         transform="rotate(-90)" />
      <rect
         x="-134.47386"
         y="7.7408948"
         width="0.47794196"
         height="8.6772594"
         id="rect6"
         style="fill:#00ccff;stroke-width:0.5;stroke-dasharray:none;stroke:#4a94a4;stroke-opacity:1"
         transform="rotate(-90)" />
      <rect
         x="-134.47386"
         y="143.67772"
         width="0.47794196"
         height="8.6775951"
         id="rect7"
         style="fill:#00ccff;stroke-width:0.5;stroke-dasharray:none;stroke:#4a94a4;stroke-opacity:1"
         transform="rotate(-90)" />
      <path
         d="m 97.402789,160.52169 h -0.482051 c 0,-9.22395 -7.568877,-16.72764 -16.872134,-16.72764 -9.302922,0 -16.871464,7.50402 -16.871464,16.72764 h -0.482051 c 0,-9.48715 7.784795,-17.20591 17.353515,-17.20591 9.569055,0 17.354185,7.71876 17.354185,17.20591 z"
         id="path24"
         style="fill:#00ccff;stroke-width:0.5;stroke-dasharray:none;stroke:#4a94a4;stroke-opacity:1" />
      <path
         d="m 97.401785,160.53331 c 0,0.87158 -0.06829,1.75046 -0.202863,2.61241 l -0.476361,-0.073 c 0.187465,-1.19883 0.241361,-2.42621 0.160349,-3.64065 l 0.481047,-0.0319 c 0.02477,0.37637 0.03783,0.7574 0.03783,1.13312 z m -0.696297,-4.82456 -0.46297,0.13342 c -0.343461,-1.17129 -0.81547,-2.30441 -1.40297,-3.3675 l 0.422799,-0.22967 c 0.604238,1.09362 1.089972,2.25894 1.443141,3.46375 z m -0.48975,11.05672 c -0.458619,1.16498 -1.047123,2.28284 -1.748776,3.32302 l -0.400705,-0.26585 c 0.682571,-1.01131 1.254673,-2.09863 1.70057,-3.23109 z m -3.122622,-17.58992 -0.362208,0.31531 c -0.808441,-0.91208 -1.720991,-1.73918 -2.712209,-2.45842 l 0.284879,-0.38567 c 1.019338,0.73981 1.957664,1.59048 2.789538,2.52878 z m -1.055827,23.78392 c -0.91188,0.8656 -1.920841,1.63263 -2.998761,2.27984 l -0.249729,-0.40857 c 1.047792,-0.62929 2.028967,-1.37475 2.915071,-2.21646 z m -5.008313,-28.1863 -0.194494,0.43712 c -1.124117,-0.49089 -2.303469,-0.8603 -3.504915,-1.09728 l 0.09407,-0.46865 c 1.235926,0.24395 2.449088,0.62365 3.605342,1.12881 z m -1.419373,32.04335 c -0.464644,0.15533 -0.943348,0.29341 -1.423391,0.41024 -0.746175,0.18155 -1.509089,0.31564 -2.267985,0.39828 l -0.05256,-0.47529 c 0.738141,-0.0803 1.479965,-0.21075 2.205385,-0.38733 0.466988,-0.11384 0.932636,-0.24826 1.384559,-0.39895 z M 79.66765,143.79804 c -1.221532,0.0285 -2.44775,0.19084 -3.64384,0.48258 -0.935314,0.22769 -1.853555,0.5347 -2.728947,0.91241 l -0.192151,-0.43811 c 0.900164,-0.38866 1.844517,-0.7043 2.805941,-0.9383 1.230236,-0.29971 2.491269,-0.46665 3.747615,-0.49619 z m -1.478291,33.35072 -0.05323,0.47529 c -1.252329,-0.13774 -2.493946,-0.41322 -3.689701,-0.81881 l 0.155997,-0.45206 c 1.162614,0.39398 2.369416,0.66182 3.586931,0.79558 z m -6.915429,-2.34291 -0.250734,0.40791 c -1.078255,-0.65087 -2.086546,-1.41956 -2.996418,-2.2845 l 0.333754,-0.34485 c 0.884765,0.84105 1.864936,1.58816 2.913398,2.22144 z m -1.167301,-27.80096 c -0.988875,0.71526 -1.90176,1.5417 -2.713213,2.45609 l -0.361873,-0.31564 c 0.834886,-0.94061 1.773882,-1.79062 2.791211,-2.52645 z m -4.104467,22.78655 -0.40104,0.26486 c -0.698305,-1.04019 -1.282792,-2.16003 -1.736724,-3.32933 l 0.449915,-0.17193 c 0.441211,1.13644 1.009295,2.22542 1.687849,3.2364 z m -0.723411,-17.34996 c -0.593526,1.06575 -1.070556,2.19721 -1.417031,3.36252 l -0.4623,-0.13508 c 0.356517,-1.19884 0.846937,-2.36249 1.457536,-3.45844 z m -1.908455,10.59106 -0.476696,0.0724 c -0.191146,-1.23767 -0.245042,-2.50189 -0.160683,-3.74521 l 0.481047,0.0322 c -0.08235,1.2078 -0.02946,2.43717 0.156332,3.64065 z"
         id="path27"
         style="fill:#00ccff;stroke-width:0.5;stroke-dasharray:none;stroke:#4a94a4;stroke-opacity:1" />
      <path
         d="m 91.978037,199.74944 v 3.55005 h -0.482051 v -3.55005 c 0,-6.25772 -5.134852,-11.34847 -11.446712,-11.34847 -6.31253,0 -11.448051,5.09075 -11.448051,11.34847 v 3.55005 h -0.482052 v -3.55005 c 0,-6.52125 5.351775,-11.82674 11.930103,-11.82674 6.577658,0 11.928763,5.30549 11.928763,11.82674 z"
         id="path28"
         style="fill:#00ccff;stroke-width:0.5;stroke-dasharray:none;stroke:#4a94a4;stroke-opacity:1" />
      <path
         d="m 143.67872,174.01027 v 40.75783 h -0.48205 v -40.6639 c -10.54086,-25.52874 -35.32299,-42.02006 -63.148735,-42.02006 -27.824408,0 -52.606536,16.49199 -63.148398,42.0194 v 40.66456 h -0.482051 v -40.78438 l 0.02779,-0.0415 c 5.102045,-12.36509 13.697289,-22.90304 24.857449,-30.47543 11.435999,-7.75926 24.834015,-11.86093 38.745215,-11.86093 13.911869,0 27.31022,4.10167 38.74656,11.86159 11.16751,7.5777 19.7661,18.12396 24.86648,30.49933 z"
         id="path29"
         style="fill:#00ccff;stroke-width:0.5;stroke-dasharray:none;stroke:#4a94a4;stroke-opacity:1" />
      <path
         style="fill:#00ccff;stroke:#4a94a4;stroke-width:0.5;stroke-dasharray:none;stroke-opacity:1"
         d="m 35.019224,170.06392 90.060986,-0.008"
         id="path5-3-4"
         sodipodi:nodetypes="cc" />
    </g>
  </g>
</svg>
