<svg xmlns="http://www.w3.org/2000/svg" viewBox="0 0 24 24">
  <path d="M15.08 10.94C15.92 9.76 15.92 8.23 15.08 7.05L16.76 5.36C18.78 7.56 18.78 10.61 16.76 12.63L15.08 10.94M20.07 2L18.44 3.63C21.21 6.65 21.21 11.19 18.44 14.37L20.07 16C23.97 12.11 24 6.05 20.07 2M9 6.9C10.16 6.9 11.1 7.84 11.1 9C11.1 9.09 11.09 9.17 11.08 9.25L12.58 10.76C12.84 10.22 13 9.63 13 9C13 6.79 11.21 5 9 5C8.37 5 7.78 5.16 7.25 5.42L8.75 6.93C8.83 6.92 8.91 6.9 9 6.9M16.96 17.68L20 20.72L18.73 22L17 20.27V21H1V18C1 15.34 6.33 14 9 14C9.55 14 10.2 14.06 10.9 14.17L9.67 12.94C9.46 13 9.23 13 9 13C6.79 13 5 11.21 5 9C5 8.77 5 8.55 5.06 8.33L2 5.27L3.28 4L5.85 6.57L7.2 7.93L10.07 10.8L11.43 12.16L14.5 15.22L16.96 17.68M15.1 18.37L13.64 16.91C12.45 16.38 10.7 15.9 9 15.9C6.03 15.9 2.9 17.36 2.9 18V19.1H15.1V18.37Z" fill="currentColor" />
</svg>
