<svg xmlns="http://www.w3.org/2000/svg" viewBox="0 0 24 24">
  <path d="M16.76 5.36C18.78 7.56 18.78 10.61 16.76 12.63L15.08 10.94C15.92 9.76 15.92 8.23 15.08 7.05L16.76 5.36M20.07 2C24 6.05 23.97 12.11 20.07 16L18.44 14.37C21.21 11.19 21.21 6.65 18.44 3.63L20.07 2M9 14C11.67 14 17 15.34 17 18V21H1V18C1 15.34 6.33 14 9 14M9 5C11.21 5 13 6.79 13 9S11.21 13 9 13 5 11.21 5 9 6.79 5 9 5M9 15.9C6.03 15.9 2.9 17.36 2.9 18V19.1H15.1V18C15.1 17.36 11.97 15.9 9 15.9M9 6.9C7.84 6.9 6.9 7.84 6.9 9C6.9 10.16 7.84 11.1 9 11.1C10.16 11.1 11.1 10.16 11.1 9C11.1 7.84 10.16 6.9 9 6.9Z" fill="currentColor" />
</svg>
