<svg xmlns="http://www.w3.org/2000/svg" viewBox="0 0 24 24">
  <path d="M16 21C16.55 21 17 21.45 17 22C17 22.55 16.55 23 16 23H13C12.45 23 12 22.55 12 22C12 21.45 12.45 21 13 21V19.95C9.61 19.65 7 17.77 7 15C7 11.96 10.13 10 14 10C14.18 10 14.35 10 14.53 10C12.23 4.97 14 4.75 14 4.75C13 3 15 3.25 15 3.25C15 2 16.25 2.75 16.25 2.75C17 1.75 17.75 3.5 17.75 3.5C20 4 17.75 5 17.75 5C19.5 6 19.5 8 19.5 8H17C19.78 10.09 20.63 12.65 20.89 14.03C20.96 14.34 21 14.66 21 15C21 17.77 18.39 19.65 15 19.95V21H16M5 16C5 16 3 16 4 15C4 15 2 14 3.5 13C3.5 13 1 10 4 11C4 11 2 8 4.5 9C4.5 9 6 4.04 8 10.92C6.75 11.94 6 13.34 6 15C6 16 6.27 16.91 6.76 17.7C5.43 17.33 3.67 16.66 5 16M10 16H14C17 16 17 12 14 12C11 12 10 16 10 16Z" fill="currentColor" />
</svg>
