<svg xmlns="http://www.w3.org/2000/svg" viewBox="0 0 24 24">
  <path d="M8 13V14H16V13C16 11.67 13.33 11 12 11C10.67 11 8 11.67 8 13M13.41 6.59C13.04 6.21 12.53 6 12 6C11.47 6 10.96 6.21 10.59 6.59C10.21 6.96 10 7.47 10 8C10 8.53 10.21 9.04 10.59 9.41C10.96 9.79 11.47 10 12 10C12.53 10 13.04 9.79 13.41 9.41C13.79 9.04 14 8.53 14 8C14 7.47 13.79 6.96 13.41 6.59M20 2H4C3.47 2 2.96 2.21 2.59 2.59C2.21 2.96 2 3.47 2 4V16C2 16.53 2.21 17.04 2.59 17.41C2.96 17.79 3.47 18 4 18H8L12 22L16 18H20C20.53 18 21.04 17.79 21.41 17.41C21.79 17.04 22 16.53 22 16V4C22 3.47 21.79 2.96 21.41 2.59C21.04 2.21 20.53 2 20 2M4 16V4H20V16H15.17L12 19.17L8.83 16H4Z" fill="currentColor" />
</svg>
